<?xml version="1.0" encoding="utf-8"?>
<!-- Generator: Adobe Illustrator 21.1.0, SVG Export Plug-In . SVG Version: 6.00 Build 0)  -->
<svg version="1.1" id="Layer_1" xmlns="http://www.w3.org/2000/svg" xmlns:xlink="http://www.w3.org/1999/xlink" x="0px" y="0px"
	 viewBox="0 0 100 100" style="enable-background:new 0 0 100 100;" xml:space="preserve">
<style type="text/css">
	.st0{fill:#F1A91E;}
	.st1{fill:none;}
	.st2{fill:#FFFFFF;}
	.st3{font-family:'Helvetica';}
	.st4{font-size:36px;}
</style>
<g>
	<circle class="st0" cx="50" cy="50" r="48.5"/>
</g>
<g>
	<g>
		<path class="st0" d="M58.6,34.4c0.9-2.4,2.2-3.6,4.3-4.6c-0.7-0.3-1.5-0.6-2.2-0.9c1.9,9.6,4,24.2-7.8,28.5c0.6,0.3,1.2,0.7,1.8,1
			C52.1,50.3,53.6,41.7,59,35c1.2-1.5-0.9-3.6-2.1-2.1c-6,7.6-8,17.2-5,26.4c0.2,0.7,1.1,1.3,1.8,1c13.6-5,12.2-20.6,9.9-32.2
			c-0.2-1-1.4-1.3-2.2-0.9c-2.9,1.3-4.7,3.4-5.7,6.4C55,35.4,57.9,36.2,58.6,34.4L58.6,34.4z"/>
	</g>
</g>
<g>
	<g>
		<path class="st0" d="M53.3,50.7c1.6-2.7,3.2-5.3,4.8-8c1.7-2.9,4.6-9.1,8.1-4.6c3.7,4.8,3.3,12.1,0.6,17.2
			c-0.9,1.7,1.7,3.2,2.6,1.5c3.4-6.6,3.9-17.2-2.5-22.4c-2.3-1.8-5.1-2.1-7.1,0.2c-3.7,4-6.2,9.9-9,14.6
			C49.7,50.9,52.2,52.4,53.3,50.7L53.3,50.7z"/>
	</g>
</g>
<rect x="-25" y="36" class="st1" width="148" height="69"/>
<text transform="matrix(1 0 0 1 12.0649 61.5596)" class="st2 st3 st4">1938</text>
</svg>
